/* XPM */
static const char * compilezcode_xpm[] = {
"16 16 32 1",
" 	c None",
".	c #A8D3FB",
"+	c #B6DAFC",
"@	c #87B3D8",
"#	c #98CBFA",
"$	c #F2F5F9",
"%	c #7595B1",
"&	c #FFF175",
"*	c #E4ECF5",
"=	c #FCCC36",
"-	c #EDF3F9",
";	c #C3D8E6",
">	c #49556B",
",	c #566D8D",
"'	c #D5E5EE",
")	c #E6A70B",
"!	c #526079",
"~	c #A8CBDD",
"{	c #EDB106",
"]	c #F3BB17",
"^	c #434B5C",
"/	c #EDB113",
"(	c #293143",
"_	c #3E4555",
":	c #FFFB9A",
"<	c #CBCCD1",
"[	c #9ABFD5",
"}	c #AFD2E4",
"|	c #E0E8EF",
"1	c #E49C00",
"2	c #F0B512",
"3	c #FFFFFF",
"3333333333333   ",
"3'}}~[[@@%%%%3  ",
"3}'333333***#,3 ",
"3}3222]]3++-@@,3",
"3;32:&=3+++--$,3",
"332:&]3333+++$!3",
"332&&/11)3++.$!3",
"322{{=]13++..$>3",
"3333)]13+((((*>3",
"3;3)]13+...((*^3",
"3'3]13+...((#|^3",
"33113+...(###|_3",
"3313++...((((-_3",
"333$-****|||-<(3",
"3%,,,!!>>^^__(!3",
"3333333333333333"};
