/* XPM */
static const char * filesaveall_xpm[] = {
"16 15 18 1",
" 	c None",
".	c #5F666D",
"+	c #671B1B",
"@	c #935D5D",
"#	c #FFFFFF",
"$	c #AC867A",
"%	c #BCBDBE",
"&	c #A5B0BA",
"*	c #B7BFC7",
"=	c #C6CCD3",
"-	c #D2D9E0",
";	c #E1E6EE",
">	c #C0C7D1",
",	c #D5D6D8",
"'	c #DCE2EA",
")	c #C3C5C8",
"!	c #CAD2DC",
"~	c #D6DFE7",
"............... ",
".+@#########@+. ",
".$@#%%%%%%%#@$. ",
".$@#########@$. ",
".$@#%%%%%%%#@$. ",
".$@#########@$. ",
".$$@@@@@@@@@$$. ",
".$$$$$$$$$$$$$. ",
".$$$@@@@@@@@$$. ",
".$$@&&&*=-;#@$. ",
".$$@&+@@=-;#@$. ",
".$$@&+@@>,'#@$. ",
".$$@&+@@)!~#@$. ",
".$$@))~#####@$. ",
" .............  "};
