/* XPM */
static const char * findback_xpm[] = {
"16 15 37 1",
" 	c None",
".	c #ACC4D3",
"+	c #85A7BC",
"@	c #749BB4",
"#	c #AABFCD",
"$	c #98B3C6",
"%	c #A0BACB",
"&	c #C0D1DC",
"*	c #5459C8",
"=	c #B5CAD7",
"-	c #81A3B9",
";	c #8FB0C3",
">	c #4CBCE3",
",	c #71C5E7",
"'	c #AFD1DE",
")	c #AFC1D2",
"!	c #91D2EF",
"~	c #B0C1D3",
"{	c #5A88A4",
"]	c #555BC0",
"^	c #5A89A6",
"/	c #E9F4FB",
"(	c #D3ECF8",
"_	c #A7DAF2",
":	c #AEC9D7",
"<	c #B6E0F4",
"[	c #BCD9EF",
"}	c #B6D5EE",
"|	c #6B98B8",
"1	c #CAD6E1",
"2	c #A06959",
"3	c #C2CBDB",
"4	c #6591AE",
"5	c #8EA9BC",
"6	c #E6DED2",
"7	c #D8BCA4",
"8	c #DB916B",
"       .+@@+#   ",
"      $%&*&=$-  ",
"     .;&**>,'%% ",
"     @)***!,,~+ ",
"     {]*******- ",
"     ^********- ",
"     -=***/(_:; ",
"     %#:**<[}%% ",
"      |%:*1:;$  ",
"    2234$-@-5   ",
"   2672         ",
"  26782         ",
" 26782          ",
" 2782           ",
"  22            "};
