/* XPM */
static const char * findobject_xpm[] = {
"16 15 26 1",
" 	c None",
".	c #ACC4D3",
"+	c #85A7BC",
"@	c #749BB4",
"#	c #AABFCD",
"$	c #98B3C6",
"%	c #A0BACB",
"&	c #6C6C6C",
"*	c #81A3B9",
"=	c #8FB0C3",
"-	c #FFFFFF",
";	c #7A9B9E",
">	c #B9CBD5",
",	c #5A89A6",
"'	c #CAD6E1",
")	c #C0D1DC",
"!	c #B5CAD7",
"~	c #AEC9D7",
"{	c #6B98B8",
"]	c #A06959",
"^	c #C2CBDB",
"/	c #6591AE",
"(	c #8EA9BC",
"_	c #E6DED2",
":	c #D8BCA4",
"<	c #DB916B",
"       .+@@+#   ",
"      $%&&&&$*  ",
"     .=&-;--&%% ",
"     @>&;--;&>+ ",
"     ,'&--;-&)* ",
"     ,'&-;--&'* ",
"     *!&;--;&~= ",
"     %#&--;-&%% ",
"      {%&&&&=$  ",
"    ]]^/$*@*(   ",
"   ]_:]         ",
"  ]_:<]         ",
" ]_:<]          ",
" ]:<]           ",
"  ]]            "};
