/* XPM */
static const char * wide_xpm[] = {
"16 16 103 2",
"  	c None",
". 	c #A59647",
"+ 	c #FCE4BA",
"@ 	c #EC821F",
"# 	c #E09437",
"$ 	c #FEC271",
"% 	c #EC750C",
"& 	c #EDDEB5",
"* 	c #FCA513",
"= 	c #E6860A",
"- 	c #DCDFE2",
"; 	c #F4F5F7",
"> 	c #CDCDC4",
", 	c #FCDC82",
"' 	c #FCAB02",
") 	c #D7DADD",
"! 	c #F0F2F4",
"~ 	c #ECEFF1",
"{ 	c #E7EAEE",
"] 	c #DCD9C2",
"^ 	c #FECE22",
"/ 	c #E9A70A",
"( 	c #D2D6DA",
"_ 	c #E9ECEF",
": 	c #E4E7EB",
"< 	c #DEE3E8",
"[ 	c #CBCFD0",
"} 	c #F4E893",
"| 	c #FEC800",
"1 	c #D0B166",
"2 	c #B3B8BD",
"3 	c #C7CBCF",
"4 	c #E8EBEE",
"5 	c #E6EAED",
"6 	c #E1E5E9",
"7 	c #DBE0E5",
"8 	c #D6DCE2",
"9 	c #D8DDE3",
"0 	c #C1C5C6",
"a 	c #E8DF8A",
"b 	c #D4A623",
"c 	c #9B9A95",
"d 	c #A0A3A5",
"e 	c #94979A",
"f 	c #CACED2",
"g 	c #D2D9DF",
"h 	c #CED5DC",
"i 	c #D2D8DE",
"j 	c #DADEE3",
"k 	c #C4C7CA",
"l 	c #40403D",
"m 	c #949595",
"n 	c #A1A3A5",
"o 	c #A6A8AA",
"p 	c #BABBBD",
"q 	c #CED0D1",
"r 	c #979CA0",
"s 	c #C1C6CB",
"t 	c #DDE1E6",
"u 	c #C8CFD7",
"v 	c #CDD3DA",
"w 	c #D5D9DE",
"x 	c #D4D9DD",
"y 	c #C1C5CA",
"z 	c #7C7E83",
"A 	c #C5C7CA",
"B 	c #CACCCE",
"C 	c #E7E8EA",
"D 	c #F7F8F9",
"E 	c #FDFDFE",
"F 	c #ACB3B9",
"G 	c #D0D6DC",
"H 	c #CED3D9",
"I 	c #CDD2D8",
"J 	c #D0D3D8",
"K 	c #B9B5AD",
"L 	c #CCBFA9",
"M 	c #EDEFF1",
"N 	c #F8F8F9",
"O 	c #F6F7F8",
"P 	c #C2CAD3",
"Q 	c #929EAB",
"R 	c #8E99A4",
"S 	c #BEC6CF",
"T 	c #D9DDE1",
"U 	c #DCE0E3",
"V 	c #E1E3E8",
"W 	c #E1DFDD",
"X 	c #E0D6C6",
"Y 	c #EAE7E7",
"Z 	c #CDD4DB",
"` 	c #98A4B0",
" .	c #B4BDC7",
"..	c #E6E9EC",
"+.	c #EBEDEF",
"@.	c #F1F2F3",
"#.	c #D2D6D5",
"$.	c #9EA8B1",
"%.	c #AAB4BF",
"&.	c #D4DAE0",
"*.	c #A7B2BC",
"=.	c #8D98A4",
"-.	c #8D99A5",
"                      .         ",
"                    + @ #       ",
"                    $ %         ",
"                  & * =         ",
"            - ; > , '           ",
"        ) ! ~ { ] ^ /           ",
"    ( ~ _ : < [ } | 1 2         ",
"3 4 5 6 7 8 9 0 a b c d e       ",
"f 4 9 g h i j k l m n o p q r   ",
"  s t u v w x y z A B C D E _   ",
"    F G H I x J K L M N O P Q   ",
"      R S T U V W X Y Z `       ",
"           ...+.@.#.$.          ",
"            %.&.*.=.            ",
"              -.                ",
"                                "};
