/* XPM */
static const char * tipicon_xpm[] = {
"16 16 31 1",
" 	c None",
".	c #ABAD01",
"+	c #C7C816",
"@	c #EAEA30",
"#	c #FFFF40",
"$	c #CFD111",
"%	c #D5D620",
"&	c #FFFFA0",
"*	c #FFFF70",
"=	c #BFBF50",
"-	c #EEF011",
";	c #FFFFCF",
">	c #000080",
",	c #808060",
"'	c #F9FA30",
")	c #CACC01",
"!	c #FFFFFF",
"~	c #F4F520",
"{	c #D9DC01",
"]	c #BFC201",
"^	c #C0C211",
"/	c #DEE011",
"(	c #969640",
"_	c #E0E080",
":	c #DADA70",
"<	c #A6A650",
"[	c #808080",
"}	c #A0A0A0",
"|	c #909090",
"1	c #959595",
"2	c #000000",
"       ..       ",
"     +@##$.     ",
"    %&*=##-.    ",
"   .&;#>,#')    ",
"   %!*#>,##~.   ",
"   %###>,##'.   ",
"   +###>,##{    ",
"    @##=##']    ",
"    +##>,'{     ",
"     ^###/.     ",
"     (__:<      ",
"     [}}}|      ",
"     [}}}|      ",
"      [}1       ",
"       2        ",
"                "};
